<svg width="1071" height="162" viewBox="0 0 1071 162" fill="none" xmlns="http://www.w3.org/2000/svg">
<path d="M103.297 44.9961C97.4376 44.9961 93.1082 41.9036 90.3087 35.7188C89.0066 32.7891 87.7045 31.0312 86.4025 30.4453C85.4259 29.9896 82.8543 29.7617 78.6876 29.7617C70.4845 29.7617 61.0118 36.1419 50.2697 48.9023C35.2306 66.7409 27.7111 83.4401 27.7111 99C27.7111 106.096 30.0874 112.184 34.84 117.262C39.5926 122.34 45.2892 124.879 51.9298 124.879C58.3751 124.879 64.9181 123.186 71.5587 119.801C73.9025 118.564 78.8504 115.374 86.4025 110.23C91.4806 106.845 95.3217 105.152 97.9259 105.152C101.832 105.152 105.152 106.585 107.887 109.449C110.426 112.118 111.695 115.178 111.695 118.629C111.695 122.47 110.003 125.823 106.617 128.688C88.7137 143.792 70.4845 151.344 51.9298 151.344C37.2814 151.344 24.9116 146.005 14.8204 135.328C5.18502 125.042 0.36731 112.932 0.36731 99C0.36731 77.1901 9.90507 54.9245 28.9806 32.2031C45.1915 12.9323 61.7605 3.29688 78.6876 3.29688C81.5522 3.29688 84.1238 3.39453 86.4025 3.58984C88.7462 3.78516 90.797 4.07812 92.5548 4.46875C95.4194 1.66927 98.8699 0.269531 102.906 0.269531C109.547 0.269531 113.649 4.07812 115.211 11.6953C116.318 17.1641 116.871 23.5443 116.871 30.8359C116.871 34.0911 115.927 37.0534 114.039 39.7227C111.565 43.2383 107.984 44.9961 103.297 44.9961ZM169.508 154.762C157.464 154.762 147.112 150.628 138.453 142.359C128.948 133.31 123.968 121.233 123.512 106.129C123.056 91.7409 126.995 78.9154 135.328 67.6523C145.224 54.3711 158.994 47.7305 176.637 47.7305C189.658 47.7305 200.009 52.9388 207.692 63.3555C214.593 72.7305 218.043 84.3516 218.043 98.2188C218.043 113.323 214.007 126.214 205.934 136.891C196.884 148.805 184.742 154.762 169.508 154.762ZM175.367 73.5117C167.359 73.4466 161.044 77.0924 156.422 84.4492C152.516 90.6341 150.563 97.8607 150.563 106.129C150.563 113.941 152.776 119.931 157.203 124.098C160.719 127.418 164.82 129.078 169.508 129.078C175.172 129.078 180.087 127.158 184.254 123.316C189.007 118.824 191.546 112.737 191.871 105.055C192.718 84.0911 187.216 73.5768 175.367 73.5117ZM259.84 62.5742C269.671 51.181 278.981 45.4844 287.77 45.4844C297.796 45.4844 305.152 49.293 309.84 56.9102C313.811 53.3945 318.206 50.7578 323.024 49C327.841 47.2422 333.05 46.3633 338.649 46.3633C351.409 46.3633 360.068 52.7109 364.625 65.4062C365.537 68.0104 366.936 76.832 368.824 91.8711C370.647 102.418 372.991 119.996 375.856 144.605C376.116 148.316 374.846 151.376 372.047 153.785C369.248 156.194 365.96 157.398 362.184 157.398C354.697 157.398 350.302 153.688 349 146.266C347.828 139.56 346.624 130.087 345.387 117.848C344.085 104.436 343.011 94.931 342.164 89.332C340.406 77.6784 338.16 71.8516 335.426 71.8516C333.929 71.8516 330.511 73.349 325.172 76.3438C319.833 79.3385 315.927 81.9102 313.453 84.0586C313.453 91.4805 314.332 102.158 316.09 116.09C317.913 130.348 318.824 141.025 318.824 148.121C318.824 151.832 317.555 154.924 315.016 157.398C312.477 159.872 309.254 161.109 305.348 161.109C301.442 161.109 298.219 159.872 295.68 157.398C293.141 154.924 291.871 151.832 291.871 148.121C291.871 140.699 291.057 129.794 289.43 115.406C287.867 100.953 287.086 90.0156 287.086 82.5938C287.086 78.4271 286.728 75.1068 286.012 72.6328C278.46 76.9948 270.875 84.2539 263.258 94.4102C262.932 94.8659 262.379 95.5495 261.598 96.4609C261.337 109.612 261.207 119.931 261.207 127.418C261.207 129.241 261.142 131.715 261.012 134.84C260.882 137.9 260.817 140.178 260.817 141.676C260.817 145.191 259.384 147.958 256.52 149.977C253.915 151.865 250.693 152.809 246.852 152.809C241.318 152.809 237.574 150.4 235.621 145.582C234.254 142.327 233.57 137.151 233.57 130.055V93.7266C233.57 90.4714 233.44 85.7188 233.18 79.4688C232.919 73.1536 232.789 68.3685 232.789 65.1133C232.789 59.319 233.831 54.0781 235.914 49.3906C238.453 43.5312 242.034 40.6016 246.656 40.6016C250.302 40.6016 253.557 42.0339 256.422 44.8984C259.287 47.6979 260.719 50.7904 260.719 54.1758C260.719 52.8086 260.426 55.6081 259.84 62.5742ZM412.281 31.6172C408.115 31.6172 404.501 30.2174 401.442 27.418C398.382 24.6185 396.852 21.2005 396.852 17.1641C396.852 13.1276 398.382 9.70964 401.442 6.91016C404.501 4.11068 408.115 2.71094 412.281 2.71094C416.448 2.71094 420.029 4.11068 423.024 6.91016C426.083 9.70964 427.613 13.1276 427.613 17.1641C427.613 21.2005 426.083 24.6185 423.024 27.418C420.029 30.2174 416.448 31.6172 412.281 31.6172ZM420.582 103.199C420.582 106.91 420.68 112.867 420.875 121.07C421.136 129.273 421.266 135.23 421.266 138.941C421.266 142.717 419.996 145.842 417.457 148.316C414.918 150.725 411.695 151.93 407.789 151.93C403.883 151.93 400.66 150.725 398.121 148.316C395.582 145.842 394.313 142.717 394.313 138.941C394.313 135.23 394.182 129.273 393.922 121.07C393.727 112.867 393.629 106.91 393.629 103.199C393.629 97.4049 393.955 90.1458 394.606 81.4219C395.257 72.6979 395.582 65.4388 395.582 59.6445C395.582 55.8685 396.852 52.776 399.391 50.3672C401.93 47.8932 405.152 46.6562 409.059 46.6562C412.965 46.6562 416.188 47.8932 418.727 50.3672C421.266 52.776 422.535 55.8685 422.535 59.6445C422.535 65.4388 422.21 72.6979 421.559 81.4219C420.908 90.1458 420.582 97.4049 420.582 103.199ZM490.992 155.152C476.669 155.152 464.658 151.083 454.957 142.945C444.736 134.352 439.625 123.023 439.625 108.961C439.625 96.0052 444.215 82.6263 453.395 68.8242C463.811 53.069 475.921 45.1914 489.723 45.1914C496.494 45.1914 504.404 47.0143 513.453 50.6602C524.456 55.1523 529.957 60.3281 529.957 66.1875C529.957 69.3776 528.85 72.2096 526.637 74.6836C524.293 77.3529 521.266 78.6875 517.555 78.6875C514.755 78.6875 511.37 77.1901 507.399 74.1953C503.492 71.1354 497.6 69.6055 489.723 69.6055C484.71 69.6055 479.274 74.5208 473.414 84.3516C467.815 93.8568 465.016 102.06 465.016 108.961C465.016 115.797 467.49 121.168 472.438 125.074C477.125 128.785 483.31 130.641 490.992 130.641C495.354 130.641 500.693 128.98 507.008 125.66C513.323 122.34 517.327 120.68 519.02 120.68C522.535 120.68 525.53 121.949 528.004 124.488C530.543 127.027 531.813 129.924 531.813 133.18C531.813 138.258 526.279 143.336 515.211 148.414C505.315 152.906 497.242 155.152 490.992 155.152ZM681.324 154.957C664.788 154.957 651.767 151.279 642.262 143.922C634.254 137.802 630.25 130.738 630.25 122.73C630.25 118.629 631.487 115.243 633.961 112.574C636.435 109.84 639.853 108.473 644.215 108.473C650.074 108.473 654.371 111.467 657.106 117.457C660.817 125.465 669.215 129.469 682.301 129.469C693.499 129.469 704.339 127.027 714.82 122.145C725.693 117.132 731.129 111.63 731.129 105.641C731.129 97.4375 727.744 92.0339 720.973 89.4297C716.155 87.5417 706.487 86.4349 691.969 86.1094C680.706 85.849 670.615 83.7331 661.695 79.7617C649.651 74.3581 643.727 66.6107 643.922 56.5195C644.117 43.8242 650.888 32.2031 664.234 21.6562C677.581 11.0443 692.294 5.73828 708.375 5.73828C714.755 5.73828 722.633 7.20312 732.008 10.1328C743.662 13.7786 749.488 17.9779 749.488 22.7305C749.488 26.1159 748.317 29.1107 745.973 31.7148C743.369 34.6445 740.016 36.1094 735.914 36.1094C732.854 36.1094 728.264 35.4583 722.145 34.1562C716.09 32.8542 711.5 32.2031 708.375 32.2031C699.977 32.2682 692.001 34.2865 684.449 38.2578C676.637 42.2943 672.731 46.6888 672.731 51.4414C672.731 53.9154 673.902 55.9661 676.246 57.5938C678.655 59.1562 682.236 60.263 686.988 60.9141C695.322 61.3698 703.623 61.8255 711.891 62.2812C726.344 63.388 737.77 67.457 746.168 74.4883C755.413 82.3008 760.035 93.1081 760.035 106.91C760.035 123.707 750.465 136.435 731.324 145.094C716.741 151.669 700.074 154.957 681.324 154.957ZM858.473 155.445C855.478 155.445 850.725 152.19 844.215 145.68C838.225 148.544 832.952 150.693 828.395 152.125C823.837 153.622 819.964 154.371 816.774 154.371C801.083 154.371 789.3 150.172 781.422 141.773C773.609 133.375 769.703 120.81 769.703 104.078C769.703 88.388 775.498 74.9766 787.086 63.8438C798.675 52.6458 812.542 47.0469 828.688 47.0469C834.873 47.0469 842.034 48.8047 850.172 52.3203C860.003 56.5521 864.918 61.4674 864.918 67.0664C864.918 69.4102 864.169 71.4609 862.672 73.2188C862.021 75.8229 861.5 79.1107 861.109 83.082C860.784 86.9883 860.621 91.5781 860.621 96.8516C860.621 109.286 861.5 118.238 863.258 123.707C863.453 124.293 864.951 127.678 867.75 133.863C870.289 139.462 871.559 142.652 871.559 143.434C871.559 146.884 870.224 149.749 867.555 152.027C864.951 154.306 861.923 155.445 858.473 155.445ZM834.254 88.4531C834.254 86.3698 834.384 83.9935 834.645 81.3242C834.97 78.5898 835.426 75.5625 836.012 72.2422C834.71 71.5911 833.538 71.1354 832.496 70.875C831.52 70.5495 830.673 70.3867 829.957 70.3867C821.103 70.3867 813.356 73.8698 806.715 80.8359C800.074 87.737 796.754 95.7448 796.754 104.859C796.754 113.583 798.317 120.159 801.442 124.586C804.567 128.948 809.254 131.129 815.504 131.129C819.54 131.129 823.349 130.478 826.93 129.176C830.576 127.809 833.994 125.823 837.184 123.219C835.231 107.724 834.254 96.1354 834.254 88.4531ZM962.281 155.934C954.274 155.934 949.814 151.995 948.902 144.117C947.991 137.411 947.08 130.673 946.168 123.902C945.192 116.741 944.703 110.003 944.703 103.688C944.703 101.995 944.801 99.0977 944.996 94.9961C945.257 90.8945 945.387 87.9974 945.387 86.3047C945.387 85.849 945.452 84.7096 945.582 82.8867C945.712 80.9987 945.777 79.4688 945.777 78.2969C945.777 72.8932 944.378 70.1914 941.578 70.1914C935.589 70.1914 929.697 73.707 923.902 80.7383C918.173 87.7044 913.681 96.5586 910.426 107.301C910.296 109.449 910.003 112.314 909.547 115.895C909.156 118.824 908.961 121.689 908.961 124.488C908.961 126.311 909.156 129.078 909.547 132.789C910.003 136.435 910.231 139.169 910.231 140.992C910.231 144.703 908.929 147.763 906.324 150.172C903.785 152.646 900.563 153.883 896.656 153.883C892.75 153.883 889.527 152.646 886.988 150.172C884.449 147.763 883.18 144.703 883.18 140.992C883.18 139.169 882.984 136.435 882.594 132.789C882.203 129.078 882.008 126.311 882.008 124.488C882.008 118.238 882.464 109.547 883.375 98.4141C884.287 87.2812 884.742 78.5898 884.742 72.3398C884.742 70.3867 884.612 67.4896 884.352 63.6484C884.156 59.7422 884.059 56.8451 884.059 54.957C884.059 51.3112 885.361 48.3164 887.965 45.9727C890.634 43.5638 893.889 42.3594 897.731 42.3594C906.259 42.3594 910.817 47.4701 911.402 57.6914L911.5 58.7656C921.005 49.1953 931.031 44.4102 941.578 44.4102C953.883 44.4102 962.379 49.5534 967.067 59.8398C970.192 66.7409 971.754 77.0599 971.754 90.7969V97.7305C971.689 100.725 971.656 102.841 971.656 104.078C971.656 109.156 972.34 115.699 973.707 123.707C975.139 131.715 975.856 138.225 975.856 143.238C975.856 146.884 974.554 149.911 971.949 152.32C969.345 154.729 966.123 155.934 962.281 155.934ZM1058.77 77.5156C1052.32 77.5156 1048.45 74.8138 1047.14 69.4102C1044.54 68.9544 1041.87 68.7266 1039.14 68.7266C1023.45 68.7266 1015.6 70.875 1015.6 75.1719C1015.6 77.7109 1020.32 81.1289 1029.76 85.4258C1042.65 91.3503 1051.38 95.9727 1055.93 99.293C1065.37 106.129 1070.09 113.844 1070.09 122.438C1070.09 133.635 1064.89 142.132 1054.47 147.926C1046.07 152.548 1035.75 154.859 1023.51 154.859C1014.85 154.859 1006.94 153.525 999.781 150.855C990.016 147.21 985.133 141.839 985.133 134.742C985.133 128.232 989.007 124.977 996.754 124.977C999.749 124.977 1004.08 125.921 1009.74 127.809C1015.41 129.697 1019.77 130.641 1022.83 130.641C1036.04 130.641 1042.69 127.971 1042.75 122.633C1042.75 119.312 1038.16 115.634 1028.98 111.598C1015.57 105.673 1006.98 101.409 1003.2 98.8047C994.02 92.3594 989.43 84.5143 989.43 75.2695C989.43 62.1836 996.363 53.362 1010.23 48.8047C1018.37 46.1354 1030.74 44.8008 1047.34 44.8008C1053.85 44.8008 1058.67 45.6471 1061.79 47.3398C1066.09 49.6185 1068.24 53.8177 1068.24 59.9375C1068.24 71.6562 1065.08 77.5156 1058.77 77.5156Z" fill="#131313"/>
</svg>
